<svg xmlns="http://www.w3.org/2000/svg" xmlns:xlink="http://www.w3.org/1999/xlink" width="211" zoomAndPan="magnify" viewBox="0 0 158.25 133.499994" height="178" preserveAspectRatio="xMidYMid meet" version="1.0"><defs><clipPath id="e19c2e6054"><path d="M 100.007812 12.523438 L 156.738281 12.523438 L 156.738281 69.253906 L 100.007812 69.253906 Z M 100.007812 12.523438 " clip-rule="nonzero"/></clipPath></defs><path fill="#ffffff" d="M 8.304688 118.402344 C 8.304688 120.054688 8.960938 121.640625 10.128906 122.808594 C 11.296875 123.976562 12.878906 124.632812 14.53125 124.632812 L 118.335938 124.632812 C 119.988281 124.632812 121.574219 123.976562 122.742188 122.808594 C 123.910156 121.640625 124.566406 120.054688 124.566406 118.402344 L 124.566406 45.738281 L 8.304688 45.738281 Z M 91.347656 55.082031 C 91.347656 54.808594 91.457031 54.542969 91.652344 54.347656 C 91.847656 54.152344 92.109375 54.042969 92.386719 54.042969 L 102.765625 54.042969 C 103.042969 54.042969 103.304688 54.152344 103.5 54.347656 C 103.695312 54.542969 103.804688 54.808594 103.804688 55.082031 L 103.804688 65.464844 C 103.804688 65.738281 103.695312 66.003906 103.5 66.195312 C 103.304688 66.390625 103.042969 66.5 102.765625 66.5 L 92.386719 66.5 C 92.109375 66.5 91.847656 66.390625 91.652344 66.195312 C 91.457031 66.003906 91.347656 65.738281 91.347656 65.464844 Z M 91.347656 75.84375 C 91.347656 75.566406 91.457031 75.304688 91.652344 75.109375 C 91.847656 74.914062 92.109375 74.804688 92.386719 74.804688 L 102.765625 74.804688 C 103.042969 74.804688 103.304688 74.914062 103.5 75.109375 C 103.695312 75.304688 103.804688 75.566406 103.804688 75.84375 L 103.804688 86.222656 C 103.804688 86.5 103.695312 86.761719 103.5 86.957031 C 103.304688 87.152344 103.042969 87.261719 102.765625 87.261719 L 92.386719 87.261719 C 92.109375 87.261719 91.847656 87.152344 91.652344 86.957031 C 91.457031 86.761719 91.347656 86.5 91.347656 86.222656 Z M 70.585938 55.082031 C 70.585938 54.808594 70.695312 54.542969 70.890625 54.347656 C 71.085938 54.152344 71.351562 54.042969 71.625 54.042969 L 82.007812 54.042969 C 82.28125 54.042969 82.546875 54.152344 82.738281 54.347656 C 82.933594 54.542969 83.042969 54.808594 83.042969 55.082031 L 83.042969 65.464844 C 83.042969 65.738281 82.933594 66.003906 82.738281 66.195312 C 82.546875 66.390625 82.28125 66.5 82.007812 66.5 L 71.625 66.5 C 71.351562 66.5 71.085938 66.390625 70.890625 66.195312 C 70.695312 66.003906 70.585938 65.738281 70.585938 65.464844 Z M 70.585938 75.84375 C 70.585938 75.566406 70.695312 75.304688 70.890625 75.109375 C 71.085938 74.914062 71.351562 74.804688 71.625 74.804688 L 82.007812 74.804688 C 82.28125 74.804688 82.546875 74.914062 82.738281 75.109375 C 82.933594 75.304688 83.042969 75.566406 83.042969 75.84375 L 83.042969 86.222656 C 83.042969 86.5 82.933594 86.761719 82.738281 86.957031 C 82.546875 87.152344 82.28125 87.261719 82.007812 87.261719 L 71.625 87.261719 C 71.351562 87.261719 71.085938 87.152344 70.890625 86.957031 C 70.695312 86.761719 70.585938 86.5 70.585938 86.222656 Z M 70.585938 96.605469 C 70.585938 96.328125 70.695312 96.066406 70.890625 95.871094 C 71.085938 95.675781 71.351562 95.566406 71.625 95.566406 L 82.007812 95.566406 C 82.28125 95.566406 82.546875 95.675781 82.738281 95.871094 C 82.933594 96.066406 83.042969 96.328125 83.042969 96.605469 L 83.042969 106.984375 C 83.042969 107.261719 82.933594 107.523438 82.738281 107.71875 C 82.546875 107.914062 82.28125 108.023438 82.007812 108.023438 L 71.625 108.023438 C 71.351562 108.023438 71.085938 107.914062 70.890625 107.71875 C 70.695312 107.523438 70.585938 107.261719 70.585938 106.984375 Z M 49.828125 75.84375 C 49.828125 75.566406 49.9375 75.304688 50.128906 75.109375 C 50.324219 74.914062 50.589844 74.804688 50.863281 74.804688 L 61.246094 74.804688 C 61.519531 74.804688 61.785156 74.914062 61.980469 75.109375 C 62.171875 75.304688 62.28125 75.566406 62.28125 75.84375 L 62.28125 86.222656 C 62.28125 86.5 62.171875 86.761719 61.980469 86.957031 C 61.785156 87.152344 61.519531 87.261719 61.246094 87.261719 L 50.863281 87.261719 C 50.589844 87.261719 50.324219 87.152344 50.128906 86.957031 C 49.9375 86.761719 49.828125 86.5 49.828125 86.222656 Z M 49.828125 96.605469 C 49.828125 96.328125 49.9375 96.066406 50.128906 95.871094 C 50.324219 95.675781 50.589844 95.566406 50.863281 95.566406 L 61.246094 95.566406 C 61.519531 95.566406 61.785156 95.675781 61.980469 95.871094 C 62.171875 96.066406 62.28125 96.328125 62.28125 96.605469 L 62.28125 106.984375 C 62.28125 107.261719 62.171875 107.523438 61.980469 107.71875 C 61.785156 107.914062 61.519531 108.023438 61.246094 108.023438 L 50.863281 108.023438 C 50.589844 108.023438 50.324219 107.914062 50.128906 107.71875 C 49.9375 107.523438 49.828125 107.261719 49.828125 106.984375 Z M 29.066406 75.84375 C 29.066406 75.566406 29.175781 75.304688 29.371094 75.109375 C 29.5625 74.914062 29.828125 74.804688 30.101562 74.804688 L 40.484375 74.804688 C 40.757812 74.804688 41.023438 74.914062 41.21875 75.109375 C 41.414062 75.304688 41.523438 75.566406 41.523438 75.84375 L 41.523438 86.222656 C 41.523438 86.5 41.414062 86.761719 41.21875 86.957031 C 41.023438 87.152344 40.757812 87.261719 40.484375 87.261719 L 30.101562 87.261719 C 29.828125 87.261719 29.5625 87.152344 29.371094 86.957031 C 29.175781 86.761719 29.066406 86.5 29.066406 86.222656 Z M 29.066406 96.605469 C 29.066406 96.328125 29.175781 96.066406 29.371094 95.871094 C 29.5625 95.675781 29.828125 95.566406 30.101562 95.566406 L 40.484375 95.566406 C 40.757812 95.566406 41.023438 95.675781 41.21875 95.871094 C 41.414062 96.066406 41.523438 96.328125 41.523438 96.605469 L 41.523438 106.984375 C 41.523438 107.261719 41.414062 107.523438 41.21875 107.71875 C 41.023438 107.914062 40.757812 108.023438 40.484375 108.023438 L 30.101562 108.023438 C 29.828125 108.023438 29.5625 107.914062 29.371094 107.71875 C 29.175781 107.523438 29.066406 107.261719 29.066406 106.984375 Z M 118.335938 16.675781 L 103.824219 16.675781 L 103.824219 8.371094 L 91.367188 8.371094 L 91.367188 16.675781 L 41.5 16.675781 L 41.5 8.371094 L 29.042969 8.371094 L 29.042969 16.675781 L 14.53125 16.675781 C 13.71875 16.667969 12.910156 16.824219 12.15625 17.128906 C 11.398438 17.4375 10.714844 17.890625 10.132812 18.460938 C 9.554688 19.035156 9.097656 19.71875 8.78125 20.46875 C 8.46875 21.222656 8.304688 22.027344 8.304688 22.84375 L 8.304688 37.4375 L 124.566406 37.4375 L 124.566406 22.84375 C 124.566406 22.027344 124.402344 21.222656 124.089844 20.46875 C 123.773438 19.71875 123.316406 19.035156 122.734375 18.460938 C 122.15625 17.890625 121.46875 17.4375 120.714844 17.128906 C 119.960938 16.824219 119.152344 16.667969 118.335938 16.675781 Z M 118.335938 16.675781 " fill-opacity="1" fill-rule="nonzero"/><g clip-path="url(#e19c2e6054)"><path fill="#ffffff" d="M 128.453125 12.523438 C 127.523438 12.523438 126.59375 12.566406 125.667969 12.660156 C 124.738281 12.75 123.820312 12.886719 122.90625 13.066406 C 121.992188 13.25 121.089844 13.476562 120.195312 13.746094 C 119.304688 14.015625 118.429688 14.332031 117.566406 14.6875 C 116.707031 15.042969 115.867188 15.441406 115.042969 15.878906 C 114.222656 16.320312 113.425781 16.796875 112.648438 17.316406 C 111.875 17.832031 111.128906 18.386719 110.40625 18.980469 C 109.6875 19.570312 108.996094 20.195312 108.339844 20.855469 C 107.679688 21.511719 107.054688 22.203125 106.464844 22.921875 C 105.875 23.640625 105.320312 24.390625 104.800781 25.164062 C 104.285156 25.9375 103.804688 26.738281 103.367188 27.558594 C 102.925781 28.378906 102.527344 29.222656 102.171875 30.082031 C 101.816406 30.941406 101.503906 31.820312 101.230469 32.710938 C 100.960938 33.601562 100.734375 34.503906 100.554688 35.417969 C 100.371094 36.332031 100.234375 37.253906 100.144531 38.179688 C 100.054688 39.109375 100.007812 40.035156 100.007812 40.96875 C 100.007812 41.902344 100.054688 42.828125 100.144531 43.757812 C 100.234375 44.683594 100.371094 45.605469 100.554688 46.519531 C 100.734375 47.433594 100.960938 48.335938 101.230469 49.226562 C 101.503906 50.117188 101.816406 50.996094 102.171875 51.855469 C 102.527344 52.714844 102.925781 53.558594 103.367188 54.378906 C 103.804688 55.199219 104.285156 56 104.800781 56.773438 C 105.320312 57.546875 105.875 58.296875 106.464844 59.015625 C 107.054688 59.734375 107.679688 60.425781 108.339844 61.085938 C 108.996094 61.742188 109.6875 62.367188 110.40625 62.957031 C 111.128906 63.550781 111.875 64.105469 112.648438 64.621094 C 113.425781 65.140625 114.222656 65.617188 115.042969 66.058594 C 115.867188 66.496094 116.707031 66.894531 117.566406 67.25 C 118.429688 67.605469 119.304688 67.921875 120.195312 68.191406 C 121.089844 68.460938 121.992188 68.6875 122.90625 68.871094 C 123.820312 69.050781 124.738281 69.1875 125.667969 69.277344 C 126.59375 69.371094 127.523438 69.414062 128.453125 69.414062 C 129.386719 69.414062 130.316406 69.371094 131.242188 69.277344 C 132.171875 69.1875 133.089844 69.050781 134.003906 68.871094 C 134.917969 68.6875 135.820312 68.460938 136.710938 68.191406 C 137.605469 67.921875 138.480469 67.605469 139.339844 67.25 C 140.203125 66.894531 141.042969 66.496094 141.863281 66.058594 C 142.6875 65.617188 143.484375 65.140625 144.257812 64.621094 C 145.035156 64.105469 145.78125 63.550781 146.5 62.957031 C 147.222656 62.367188 147.910156 61.742188 148.570312 61.085938 C 149.226562 60.425781 149.851562 59.734375 150.445312 59.015625 C 151.035156 58.296875 151.589844 57.546875 152.109375 56.773438 C 152.625 56 153.101562 55.199219 153.542969 54.378906 C 153.980469 53.558594 154.378906 52.714844 154.734375 51.855469 C 155.09375 50.996094 155.40625 50.117188 155.675781 49.226562 C 155.945312 48.335938 156.171875 47.433594 156.355469 46.519531 C 156.535156 45.605469 156.671875 44.683594 156.765625 43.757812 C 156.855469 42.828125 156.902344 41.902344 156.902344 40.96875 C 156.898438 40.039062 156.851562 39.109375 156.761719 38.183594 C 156.667969 37.253906 156.53125 36.335938 156.347656 35.421875 C 156.164062 34.507812 155.9375 33.605469 155.667969 32.714844 C 155.394531 31.824219 155.082031 30.949219 154.722656 30.089844 C 154.367188 29.230469 153.96875 28.390625 153.527344 27.566406 C 153.089844 26.746094 152.609375 25.949219 152.09375 25.175781 C 151.574219 24.402344 151.019531 23.65625 150.429688 22.933594 C 149.839844 22.214844 149.214844 21.527344 148.554688 20.867188 C 147.898438 20.207031 147.207031 19.585938 146.488281 18.992188 C 145.769531 18.402344 145.023438 17.847656 144.246094 17.332031 C 143.472656 16.8125 142.675781 16.332031 141.855469 15.894531 C 141.035156 15.453125 140.195312 15.054688 139.332031 14.699219 C 138.472656 14.34375 137.597656 14.027344 136.707031 13.757812 C 135.816406 13.484375 134.914062 13.257812 134 13.074219 C 133.085938 12.894531 132.167969 12.753906 131.242188 12.664062 C 130.316406 12.570312 129.386719 12.523438 128.453125 12.523438 Z M 139.832031 43.8125 L 131.300781 43.8125 L 131.300781 52.347656 C 131.300781 52.726562 131.226562 53.085938 131.082031 53.4375 C 130.9375 53.785156 130.734375 54.09375 130.464844 54.359375 C 130.199219 54.625 129.890625 54.832031 129.542969 54.976562 C 129.195312 55.121094 128.832031 55.191406 128.453125 55.191406 C 128.078125 55.191406 127.714844 55.121094 127.367188 54.976562 C 127.015625 54.832031 126.710938 54.625 126.441406 54.359375 C 126.175781 54.09375 125.96875 53.785156 125.828125 53.4375 C 125.683594 53.085938 125.609375 52.726562 125.609375 52.347656 L 125.609375 43.8125 L 117.074219 43.8125 C 116.699219 43.8125 116.335938 43.742188 115.988281 43.597656 C 115.636719 43.453125 115.332031 43.246094 115.0625 42.980469 C 114.796875 42.714844 114.589844 42.40625 114.449219 42.058594 C 114.304688 41.707031 114.230469 41.347656 114.230469 40.96875 C 114.230469 40.589844 114.304688 40.230469 114.449219 39.878906 C 114.589844 39.53125 114.796875 39.222656 115.0625 38.957031 C 115.332031 38.691406 115.636719 38.484375 115.988281 38.339844 C 116.335938 38.195312 116.699219 38.125 117.074219 38.125 L 125.609375 38.125 L 125.609375 29.589844 C 125.609375 29.210938 125.683594 28.851562 125.828125 28.5 C 125.96875 28.152344 126.175781 27.84375 126.441406 27.578125 C 126.710938 27.3125 127.015625 27.105469 127.367188 26.960938 C 127.714844 26.816406 128.078125 26.746094 128.453125 26.746094 C 128.832031 26.746094 129.195312 26.816406 129.542969 26.960938 C 129.890625 27.105469 130.199219 27.3125 130.464844 27.578125 C 130.734375 27.84375 130.9375 28.152344 131.082031 28.5 C 131.226562 28.851562 131.300781 29.210938 131.300781 29.589844 L 131.300781 38.125 L 139.832031 38.125 C 140.210938 38.125 140.574219 38.195312 140.921875 38.339844 C 141.269531 38.484375 141.578125 38.691406 141.84375 38.957031 C 142.113281 39.222656 142.316406 39.53125 142.460938 39.878906 C 142.605469 40.230469 142.679688 40.589844 142.679688 40.96875 C 142.679688 41.347656 142.605469 41.707031 142.460938 42.058594 C 142.316406 42.40625 142.113281 42.714844 141.84375 42.980469 C 141.578125 43.246094 141.269531 43.453125 140.921875 43.597656 C 140.574219 43.742188 140.210938 43.8125 139.832031 43.8125 Z M 139.832031 43.8125 " fill-opacity="1" fill-rule="nonzero"/></g></svg>