<svg width="266" height="244" viewBox="0 0 266 244" fill="none" xmlns="http://www.w3.org/2000/svg">
<path fill-rule="evenodd" clip-rule="evenodd" d="M243.75 221.667H265.917V243.833H22.0833V221.667H44.25V108.5V104.5C79.0351 110.833 103.5 84 103.5 52.5C104.891 41.0263 100.759 30.751 93.6596 22.1667H232.667C235.606 22.1667 238.425 23.3344 240.504 25.4129C242.582 27.4914 243.75 30.3105 243.75 33.25V221.667ZM89.2883 22.1667H55.3333C53.3846 22.1667 51.4888 22.6799 49.8266 23.6314H54.2851C56.5667 23.6314 58.4036 25.4877 58.4036 27.75V44.2436H74.9165C77.1981 44.2436 79.0351 46.0998 79.0351 48.3621V56.6186C79.0351 58.9002 77.1981 60.7371 74.9165 60.7371H58.423V77.25C58.423 79.5316 56.586 81.3686 54.3044 81.3686H46.0479C45.4025 81.3686 44.7927 81.22 44.25 80.9558V101.65C46.1899 101.881 48.1643 102 50.1665 102C77.5075 102 99.6665 79.841 99.6665 52.5C99.6665 41.0697 95.7936 30.5451 89.2883 22.1667ZM132.917 88.6667H110.75V110.833H132.917V133H155.083V110.833H177.25V88.6667H155.083V66.5H132.917V88.6667ZM188.333 221.667V155.167H99.6666V221.667H121.833V177.333H166.167V221.667H188.333Z" fill="white"/>
<path fill-rule="evenodd" clip-rule="evenodd" d="M89.2883 22.1667H55.3333C53.3846 22.1667 51.4888 22.6799 49.8266 23.6314H54.2851C56.5667 23.6314 58.4036 25.4877 58.4036 27.75V44.2436H74.9165C77.1981 44.2436 79.0351 46.0998 79.0351 48.3621V56.6186C79.0351 58.9002 77.1981 60.7371 74.9165 60.7371H58.423V77.25C58.423 79.5316 56.586 81.3686 54.3044 81.3686H46.0479C45.4025 81.3686 44.7927 81.22 44.25 80.9558V101.65C46.1899 101.881 48.1643 102 50.1665 102C77.5075 102 99.6665 79.841 99.6665 52.5C99.6665 41.0697 95.7936 30.5451 89.2883 22.1667Z" fill="white"/>
<path d="M50.1665 3C22.8255 3 0.666504 25.159 0.666504 52.5C0.666504 77.8388 19.6989 98.7268 44.25 101.65V80.9558C42.8741 80.2859 41.9294 78.8724 41.9294 77.25V60.7565H25.4165C23.1349 60.7565 21.2979 58.9002 21.2979 56.6379V48.3814C21.2979 46.0998 23.1349 44.2629 25.4165 44.2629H41.9101V27.75C41.9101 25.4684 43.747 23.6314 46.0286 23.6314H49.8266C51.4888 22.6799 53.3846 22.1667 55.3333 22.1667H89.2883C80.233 10.5041 66.0772 3 50.1665 3Z" fill="white"/>
</svg>
